<?xml version="1.0" standalone="no"?>
<!DOCTYPE svg PUBLIC "-//W3C//DTD SVG 20010904//EN"
 "http://www.w3.org/TR/2001/REC-SVG-20010904/DTD/svg10.dtd">
<svg version="1.0" xmlns="http://www.w3.org/2000/svg"
 width="163.000000pt" height="163.000000pt" viewBox="0 0 163.000000 163.000000"
 preserveAspectRatio="xMidYMid meet">

<g transform="translate(0.000000,163.000000) scale(0.100000,-0.100000)"
fill="#000000" stroke="none">
<path d="M1017 1444 c-10 -11 -8 -52 3 -59 6 -3 10 -15 10 -26 0 -15 -7 -19
-35 -19 -45 0 -83 -18 -91 -44 -4 -12 -15 -27 -25 -34 -25 -17 -24 -59 1 -74
11 -7 20 -18 20 -24 0 -19 36 -44 63 -44 17 0 27 -5 27 -15 0 -9 -9 -15 -25
-15 -32 0 -65 -33 -65 -65 l0 -25 135 0 c134 0 135 0 135 23 0 34 -28 67 -56
67 -15 0 -24 6 -24 15 0 10 10 15 33 15 32 0 67 24 67 46 0 5 9 15 20 22 11 7
20 23 20 37 0 14 -9 30 -20 37 -11 7 -20 18 -20 25 0 23 -52 53 -91 53 -31 0
-39 4 -39 18 0 10 5 23 11 29 20 20 6 58 -21 61 -14 2 -29 0 -33 -4z m-14
-195 c15 -24 1 -49 -27 -49 -29 0 -44 33 -25 56 15 18 38 15 52 -7z m121 5
c20 -19 5 -54 -24 -54 -29 0 -44 35 -24 54 8 9 19 16 24 16 5 0 16 -7 24 -16z"/>
<path d="M462 1348 c-30 -49 -35 -75 -22 -112 11 -36 36 -63 46 -53 4 3 10 21
15 39 8 32 8 31 4 -7 -2 -22 -7 -55 -11 -73 l-6 -33 -19 30 c-27 45 -75 71
-132 71 -47 0 -47 0 -41 -27 20 -82 86 -143 155 -143 30 0 22 20 -27 67 -41
40 -42 43 -15 28 50 -25 71 -69 71 -147 l0 -67 -34 14 c-19 8 -67 18 -105 21
l-71 7 0 -86 c0 -145 56 -249 166 -309 46 -25 51 -26 89 -12 65 23 163 44 203
44 34 -1 31 -3 -38 -29 -42 -15 -87 -34 -100 -41 l-25 -14 40 -12 c32 -9 45
-9 67 2 77 39 258 94 308 93 23 0 23 -1 5 -9 -11 -4 -49 -20 -84 -34 -36 -15
-83 -38 -105 -52 l-41 -26 76 5 c47 3 88 12 110 24 98 54 229 92 324 93 43 0
56 3 45 10 -8 5 -32 10 -52 10 -37 0 -49 12 -27 26 23 14 49 90 49 143 0 106
-62 181 -149 181 -33 0 -49 -7 -80 -35 -52 -47 -64 -80 -59 -164 3 -52 9 -78
26 -100 12 -17 22 -33 22 -36 0 -3 -38 -5 -85 -5 l-85 0 10 26 c30 77 -6 144
-78 144 -53 0 -87 -36 -86 -93 0 -23 3 -50 8 -59 7 -16 2 -18 -39 -18 -41 0
-46 2 -40 18 4 9 10 25 12 35 3 9 9 17 13 17 4 0 11 16 14 35 9 44 57 92 100
101 52 9 114 -30 131 -84 11 -37 22 -17 27 51 6 72 23 110 69 155 l33 32 -147
0 c-80 0 -148 4 -151 9 -11 18 6 41 30 41 17 0 24 6 24 20 0 15 -7 20 -27 20
-39 0 -54 -12 -62 -51 -6 -30 -11 -35 -46 -40 -44 -7 -65 -30 -65 -71 0 -27 2
-28 51 -28 69 0 61 -24 -9 -28 -50 -3 -52 -4 -52 -32 0 -23 -7 -33 -30 -45
-16 -8 -34 -24 -40 -34 -14 -27 -13 -94 2 -109 8 -8 9 -12 1 -12 -27 0 -44 33
-42 77 3 42 0 48 -38 84 -26 24 -59 43 -87 50 -39 9 -46 15 -46 35 0 21 5 24
38 24 45 0 117 -32 154 -67 18 -18 32 -23 47 -18 28 9 26 36 -4 65 -22 20 -25
32 -25 90 l0 67 39 12 c63 18 107 74 110 139 1 17 -4 22 -25 22 -34 0 -93 -28
-107 -52 -7 -10 -15 -18 -19 -18 -14 0 -8 21 14 53 32 44 29 105 -6 151 -15
20 -31 36 -36 36 -4 0 -17 -15 -28 -32z m111 -220 c-11 -13 -27 -34 -36 -48
-12 -18 -17 -20 -17 -8 0 9 14 30 31 47 35 36 52 42 22 9z m619 -268 c28 -28
30 -35 26 -81 -8 -76 -52 -109 -108 -79 -46 25 -48 134 -3 170 35 27 49 25 85
-10z m-768 -148 c33 -47 30 -62 -8 -37 -25 17 -86 100 -86 118 0 17 64 -38 94
-81z m412 14 c10 -43 1 -61 -31 -61 -25 0 -30 4 -33 28 -6 53 51 82 64 33z"/>
<path d="M953 390 c-48 -29 -46 -70 4 -100 23 -14 39 -18 41 -11 2 6 10 11 17
11 22 0 45 29 45 56 0 17 -10 30 -32 44 -18 11 -35 20 -38 20 -3 0 -20 -9 -37
-20z m14 -69 c-16 -6 -27 22 -14 37 10 12 13 11 17 -9 4 -13 2 -26 -3 -28z
m61 21 c2 -15 -2 -22 -12 -22 -11 0 -16 9 -16 26 0 31 23 28 28 -4z"/>
<path d="M180 390 c0 -5 9 -10 20 -10 18 0 20 -7 20 -56 0 -73 24 -70 28 4 2
37 7 52 18 52 7 0 14 5 14 10 0 6 -22 10 -50 10 -27 0 -50 -4 -50 -10z"/>
<path d="M300 335 l0 -65 40 0 c29 0 40 4 40 15 0 9 -9 15 -25 15 -16 0 -25 6
-25 15 0 9 10 15 26 15 31 0 28 23 -4 28 -30 5 -28 22 3 22 14 0 25 5 25 10 0
6 -18 10 -40 10 l-40 0 0 -65z"/>
<path d="M417 374 c16 -24 16 -28 -2 -60 -22 -42 -11 -58 17 -24 l20 25 15
-22 c9 -13 22 -23 29 -23 19 0 17 10 -6 40 -24 30 -25 44 -5 60 8 7 15 16 15
21 0 16 -29 9 -39 -8 -9 -17 -10 -17 -16 0 -4 9 -16 17 -26 17 -19 0 -19 -1
-2 -26z"/>
<path d="M530 334 c0 -47 3 -65 12 -62 7 3 13 15 13 29 0 17 6 25 22 27 17 3
22 -3 25 -24 2 -15 9 -29 16 -32 9 -3 12 14 12 62 0 52 -3 66 -15 66 -8 0 -15
-9 -15 -20 0 -15 -7 -20 -26 -20 -21 0 -25 4 -21 20 3 13 0 20 -9 20 -11 0
-14 -16 -14 -66z"/>
<path d="M660 335 l0 -65 40 0 c46 0 58 26 15 32 -31 4 -34 22 -5 26 30 5 25
32 -6 32 -14 0 -23 4 -19 10 3 6 17 10 31 10 13 0 24 5 24 10 0 6 -18 10 -40
10 l-40 0 0 -65z"/>
<path d="M750 391 c0 -5 9 -11 20 -14 17 -4 20 -14 20 -57 0 -37 4 -50 13 -47
7 2 12 22 12 53 0 38 4 49 18 52 37 7 15 22 -33 22 -27 0 -50 -4 -50 -9z"/>
<path d="M1106 388 c-2 -7 -11 -35 -20 -62 -19 -60 -19 -56 -2 -56 8 0 16 7
20 15 7 20 46 19 62 -2 22 -31 25 -8 5 53 -14 45 -23 60 -40 62 -11 2 -23 -3
-25 -10z m37 -48 c3 -13 0 -20 -9 -20 -8 0 -14 9 -14 20 0 11 4 20 9 20 5 0
11 -9 14 -20z"/>
<path d="M1208 334 c3 -44 8 -64 15 -61 7 2 12 12 12 23 0 13 8 20 27 22 20 2
30 10 34 28 10 41 -1 54 -48 54 l-43 0 3 -66z m62 32 c0 -18 -16 -29 -30 -21
-13 8 -1 35 16 35 8 0 14 -6 14 -14z"/>
<path d="M1327 393 c-4 -3 -7 -33 -7 -65 0 -43 3 -59 13 -56 6 3 13 22 15 44
l4 39 13 -32 c17 -40 28 -41 46 -5 l14 27 3 -37 c2 -27 8 -38 19 -38 13 0 15
8 9 46 -3 26 -6 55 -6 65 0 12 -7 19 -20 19 -15 0 -22 -9 -26 -30 -4 -16 -9
-30 -13 -30 -4 0 -12 14 -18 30 -11 28 -31 38 -46 23z"/>
</g>
</svg>
